<svg width="36" height="36" viewBox="0 0 36 36" fill="none" xmlns="http://www.w3.org/2000/svg">
<circle cx="18" cy="18" r="16.5" stroke="white" stroke-width="3"/>
<path d="M29 18.6042C28.9946 17.1239 28.5052 15.6899 27.6127 14.5392C27.9157 13.2237 27.8211 11.8425 27.3421 10.5852C27.2954 10.4658 27.224 10.3586 27.1329 10.2714C27.0418 10.1842 26.9333 10.1191 26.8152 10.0809C26.4768 9.95987 25.1959 9.73292 22.5857 11.4981C21.4631 11.189 20.305 11.043 19.1442 11.0644C17.9817 11.0427 16.822 11.1887 15.6978 11.4981C13.0199 9.69257 11.6278 9.98509 11.3475 10.0708C11.2287 10.1107 11.1199 10.1775 11.0288 10.2665C10.9377 10.3554 10.8666 10.4643 10.8206 10.5852C10.3403 11.8384 10.2424 13.2157 10.5402 14.5291C9.61858 15.674 9.12726 17.1295 9.15782 18.6243C9.15782 24.2023 12.2175 25.8868 15.021 26.4819C14.8771 26.8491 14.7781 27.2337 14.7262 27.6267C14.7211 27.6686 14.7211 27.7109 14.7262 27.7528V29.2961C12.174 29.518 11.6278 27.9596 11.5746 27.7831C11.5623 27.7419 11.5478 27.7015 11.5311 27.662C11.0382 26.6126 10.1705 25.8069 9.11431 25.4177C8.90151 25.3435 8.66915 25.3605 8.46837 25.465C8.26758 25.5695 8.11481 25.753 8.04366 25.975C7.97251 26.1971 7.98881 26.4395 8.08898 26.649C8.18915 26.8585 8.36497 27.0179 8.57778 27.0921C9.16305 27.3127 9.65112 27.7485 9.95054 28.3177C10.2889 29.4625 11.6713 31.2731 14.7165 31.0713V32.5238C14.7165 32.7579 14.8056 32.9824 14.9643 33.1479C15.1229 33.3134 15.3381 33.4064 15.5624 33.4064C15.7868 33.4064 16.0019 33.3134 16.1606 33.1479C16.3192 32.9824 16.4083 32.7579 16.4083 32.5238V27.8184C16.4725 27.3045 16.6868 26.8238 17.0222 26.4415C17.1397 26.3268 17.2231 26.1793 17.2627 26.0166C17.3022 25.8538 17.2962 25.6826 17.2453 25.5234C17.1944 25.3641 17.1008 25.2234 16.9756 25.1179C16.8504 25.0125 16.6988 24.9468 16.5388 24.9285C13.5903 24.5704 10.8641 23.5567 10.8641 18.589C10.8445 17.9894 10.9444 17.392 11.1573 16.8347C11.3703 16.2774 11.6918 15.7723 12.1015 15.3512C12.2117 15.2275 12.2878 15.075 12.3218 14.9099C12.3559 14.7448 12.3466 14.5732 12.2949 14.4131C12.0101 13.5498 11.9915 12.6151 12.2417 11.7402C13.2796 11.9847 14.2543 12.4613 15.0984 13.1372C15.2069 13.2121 15.3301 13.2605 15.459 13.2788C15.5879 13.2972 15.719 13.285 15.8428 13.2431C16.9168 12.902 18.0364 12.7436 19.1587 12.7741C20.2793 12.7436 21.3974 12.9019 22.4697 13.2431C22.5934 13.2853 22.7246 13.2977 22.8536 13.2794C22.9825 13.261 23.1058 13.2124 23.2141 13.1372C24.0271 12.4872 24.9577 12.0154 25.95 11.7503C26.1964 12.6349 26.1744 13.5774 25.8871 14.4484C25.8398 14.5938 25.8301 14.7496 25.8589 14.9002C25.8878 15.0507 25.9542 15.1906 26.0515 15.3058C26.8517 16.1973 27.3049 17.3678 27.3227 18.589C27.3227 23.5466 24.4564 24.5755 21.648 24.9285C21.4799 24.948 21.3213 25.02 21.1929 25.135C21.0646 25.25 20.9725 25.4028 20.9287 25.5732C20.8848 25.7437 20.8913 25.924 20.9471 26.0906C21.003 26.2572 21.1058 26.4024 21.242 26.5071C21.5417 26.7441 21.8897 27.4099 21.8897 28.5244V32.5188C21.8897 32.7528 21.9788 32.9773 22.1374 33.1428C22.2961 33.3084 22.5112 33.4013 22.7356 33.4013C22.9599 33.4013 23.1751 33.3084 23.3337 33.1428C23.4923 32.9773 23.5815 32.7528 23.5815 32.5188V28.5244C23.5903 27.8221 23.4671 27.1247 23.2189 26.4718C25.4908 25.9675 29 24.4091 29 18.6042Z" fill="white"/>
</svg>
