<svg width="40" height="40" viewBox="0 0 40 40" fill="none" xmlns="http://www.w3.org/2000/svg">
<path d="M36.6663 5.78424V34.2156C36.6663 34.8656 36.4082 35.4891 35.9485 35.9488C35.4888 36.4084 34.8653 36.6666 34.2153 36.6666H5.78399C5.13394 36.6666 4.51052 36.4084 4.05089 35.9488C3.59124 35.4891 3.33301 34.8656 3.33301 34.2156V5.78424C3.33301 5.13419 3.59124 4.51077 4.05089 4.05114C4.51052 3.59149 5.13394 3.33325 5.78399 3.33325H34.2153C34.8653 3.33325 35.4888 3.59149 35.9485 4.05114C36.4082 4.51077 36.6663 5.13419 36.6663 5.78424ZM13.1369 16.0784H8.23497V31.7646H13.1369V16.0784ZM13.5781 10.6862C13.5807 10.3154 13.5102 9.94774 13.3707 9.60417C13.2312 9.26062 13.0254 8.9479 12.765 8.6839C12.5046 8.41989 12.1948 8.20974 11.8532 8.06547C11.5116 7.9212 11.145 7.84562 10.7742 7.84305H10.686C9.93191 7.84305 9.20874 8.1426 8.67554 8.67579C8.14236 9.20899 7.84281 9.93215 7.84281 10.6862C7.84281 11.4403 8.14236 12.1634 8.67554 12.6966C9.20874 13.2298 9.93191 13.5294 10.686 13.5294C11.0568 13.5385 11.4258 13.4744 11.7718 13.3409C12.1179 13.2074 12.4342 13.007 12.7028 12.7511C12.9714 12.4953 13.187 12.189 13.3371 11.8499C13.4873 11.5107 13.5692 11.1453 13.5781 10.7745V10.6862ZM31.7643 22.2353C31.7643 17.5196 28.7643 15.6862 25.784 15.6862C24.8082 15.6374 23.8365 15.8452 22.9662 16.289C22.0957 16.7328 21.3568 17.3971 20.8232 18.2156H20.686V16.0784H16.0781V31.7646H20.98V23.4214C20.9092 22.5671 21.1783 21.7191 21.729 21.0619C22.2798 20.4048 23.0675 19.9914 23.9212 19.9118H24.1075C25.6663 19.9118 26.8232 20.8921 26.8232 23.3626V31.7646H31.7252L31.7643 22.2353Z" fill="white"/>
</svg>
